# xmcd CD database file
#
# Track frame offsets:
#	150
#	22372
#	43366
#	64044
#	85983
#	106575
#	130042
#	149739
#
# Disc length: 2364 seconds
#
# Revision: 0
# Processed by: cddbd v1.5.1PL0 Copyright (c) Steve Scherf et al.
# Submitted via: CDex 1.51
#
DISCID=74093a08
DTITLE=Salsa - Tommy Olivencia - Show Show Show show
DYEAR=1996
DGENRE=Salsa
TTITLE0=Lobo Domesticado
TTITLE1=El del Tabacon (En Cuba no Falta Nada)
TTITLE2=No Soy Automatico
TTITLE3=Que Pobre Amante Eres
TTITLE4=Lapiz De Carmin
TTITLE5=Lo Dudo
TTITLE6=12 Rosas
TTITLE7=Alejate De Mi
EXTD=YEAR: 1996
EXTT0=
EXTT1=
EXTT2=
EXTT3=
EXTT4=
EXTT5=
EXTT6=
EXTT7=
PLAYORDER=
